<?xml version="1.0" encoding="iso-8859-1"?>
<!-- Generator: Adobe Illustrator 19.0.0, SVG Export Plug-In . SVG Version: 6.00 Build 0)  -->
<svg version="1.1" id="Capa_1" xmlns="http://www.w3.org/2000/svg" xmlns:xlink="http://www.w3.org/1999/xlink" x="0px" y="0px"
	 viewBox="0 0 511.999 511.999" style="enable-background:new 0 0 511.999 511.999;" xml:space="preserve">
<path style="fill:#EE584F;" d="M67.654,247.032c0,0,12.845,63.077-57.654,63.077c0,17.81,0,116.507,0,116.507
	s57.654-8.905,57.654,63.819h74.096V247.032H67.654z"/>
<path style="fill:#CBC2BA;" d="M486.378,205.997c16.43-16.43,16.43-43.068,0-59.497L373.764,33.885
	c-16.43-16.429-43.067-16.429-59.497,0L101.12,247.032h344.223L486.378,205.997z"/>
<path style="fill:#EEEEEE;" d="M459.929,247.032h-14.586H141.75v243.402h318.179c23.235,0,42.071-18.836,42.071-42.071v-159.26
	C502,265.868,483.164,247.032,459.929,247.032z"/>
<rect x="331.314" y="111.774" transform="matrix(0.7071 0.7071 -0.7071 0.7071 214.665 -217.5208)" style="fill:#00ADEE;" width="77.179" height="77.179"/>
<rect x="378.32" y="330.149" style="fill:#69CAEE;" width="77.18" height="77.18"/>
<g>
	<path style="fill:#231F20;" d="M362.831,212.005c1.953,1.953,4.512,2.929,7.071,2.929c2.559,0,5.119-0.976,7.071-2.929
		l54.572-54.572c1.875-1.876,2.929-4.419,2.929-7.071s-1.054-5.196-2.929-7.071l-54.572-54.572c-3.905-3.905-10.237-3.905-14.142,0
		l-54.572,54.572c-1.875,1.876-2.929,4.419-2.929,7.071s1.054,5.196,2.929,7.071L362.831,212.005z M369.902,109.931l40.43,40.43
		l-40.43,40.43l-40.43-40.43L369.902,109.931z"/>
	<path style="fill:#231F20;" d="M455.497,320.146H378.32c-5.523,0-10,4.477-10,10v77.176c0,5.523,4.477,10,10,10h77.177
		c5.523,0,10-4.477,10-10v-77.176C465.497,324.623,461.02,320.146,455.497,320.146z M445.497,397.322H388.32v-57.176h57.177V397.322
		z"/>
	<path style="fill:#231F20;" d="M333.75,280.734c-5.523,0-10,4.477-10,10v156c0,5.523,4.477,10,10,10s10-4.477,10-10v-156
		C343.75,285.211,339.273,280.734,333.75,280.734z"/>
	<path style="fill:#231F20;" d="M290.42,280.737c-5.52,0-10,4.48-10,10v110c0,5.51,4.48,9.99,10,9.99c5.51,0,10-4.48,10-9.99v-110
		C300.42,285.218,295.93,280.737,290.42,280.737z"/>
	<path style="fill:#231F20;" d="M290.42,430.737c-5.52,0-10,4.48-10,10c0,5.51,4.48,10,10,10c5.51,0,10-4.49,10-10
		C300.42,435.218,295.93,430.737,290.42,430.737z"/>
	<path style="fill:#231F20;" d="M247.084,332.68c-5.523,0-10,4.477-10,10v52.107c0,5.523,4.477,10,10,10s10-4.477,10-10V342.68
		C257.084,337.157,252.607,332.68,247.084,332.68z"/>
	<path style="fill:#231F20;" d="M67.084,342.68v52.107c0,5.523,4.477,10,10,10s10-4.477,10-10V342.68c0-5.523-4.477-10-10-10
		S67.084,337.157,67.084,342.68z"/>
	<path style="fill:#231F20;" d="M468.727,237.791l24.723-24.723c9.835-9.835,15.251-22.911,15.251-36.82
		c0-13.909-5.417-26.985-15.251-36.82L380.835,26.814c-9.835-9.834-22.911-15.25-36.819-15.25c-13.909,0-26.985,5.416-36.82,15.251
		L96.977,237.032H67.654c-3.002,0-5.845,1.349-7.745,3.674c-1.899,2.325-2.653,5.38-2.054,8.322
		c0.044,0.217,4.084,22.095-7.807,36.652c-7.821,9.574-21.296,14.429-40.048,14.429c-5.523,0-10,4.477-10,10v116.204
		c0,2.919,1.347,5.585,3.462,7.596c3.204,3.045,9.695,2.362,12.353,2.362c15.626,0,41.839,7.037,41.839,54.164
		c0,5.523,4.477,10,10,10h392.274c28.712,0,52.071-23.359,52.071-52.071V289.103C512,263.391,493.262,241.986,468.727,237.791z
		 M321.338,40.957c6.057-6.058,14.111-9.393,22.677-9.393s16.62,3.336,22.677,9.393l112.615,112.615
		c6.057,6.057,9.393,14.11,9.393,22.677c0,8.566-3.336,16.62-9.394,22.677L441.2,237.032h-88.088l-90.095-90.095
		c-3.905-3.905-10.236-3.905-14.143,0c-3.905,3.905-3.905,10.237,0,14.143l75.952,75.953h-32.995l-59.462-59.455
		c-1.88-1.89-4.39-2.93-7.07-2.93c-2.67,0-5.18,1.04-7.07,2.93c-1.89,1.89-2.93,4.4-2.93,7.07c0,2.67,1.04,5.18,2.93,7.07
		l45.315,45.315H125.262L321.338,40.957z M131.75,480.435H77.294c-1.736-23.335-9.753-40.75-23.896-51.853
		C41.814,419.485,28.701,416.961,20,416.406v-96.714c20.071-1.739,35.361-8.902,45.537-21.359
		c11.128-13.622,13.154-30.266,13.016-41.3h53.197V480.435z M492,448.364c0,17.684-14.387,32.071-32.071,32.071H192.75v-9.422
		c0-5.523-4.477-10-10-10s-10,4.477-10,10v9.422h-21V257.032h21v9.648c0,5.523,4.477,10,10,10s10-4.477,10-10v-9.648h267.179
		c17.684,0,32.071,14.387,32.071,32.071V448.364z"/>
	<path style="fill:#231F20;" d="M182.75,297.548c-5.52,0-10,4.48-10,10s4.48,10,10,10s10-4.48,10-10
		C192.75,302.028,188.27,297.548,182.75,297.548z"/>
	<path style="fill:#231F20;" d="M182.75,338.418c-5.51,0-10,4.48-10,10v40.86c0,5.52,4.49,10,10,10s10-4.48,10-10v-40.86
		C192.75,342.898,188.26,338.418,182.75,338.418z"/>
	<path style="fill:#231F20;" d="M182.75,420.148c-5.51,0-10,4.48-10,10c0,5.51,4.49,10,10,10s10-4.49,10-10
		C192.75,424.628,188.26,420.148,182.75,420.148z"/>
</g>
</svg>
